<?xml version="1.0" encoding="utf-8"?>
<!-- Generator: Adobe Illustrator 24.1.1, SVG Export Plug-In . SVG Version: 6.00 Build 0)  -->
<svg version="1.1" id="Layer_1" xmlns="http://www.w3.org/2000/svg" xmlns:xlink="http://www.w3.org/1999/xlink" x="0px" y="0px"
	 viewBox="0 0 300 300" style="enable-background:new 0 0 300 300;" xml:space="preserve">
<style type="text/css">
	.st0{fill:#9318A0;}
	.st1{fill:#494182;}
	.st2{fill:#8E5454;}
	.st3{fill:#0E3D09;}
	.st4{fill:#382D2D;}
</style>
<g>
	<g>
		<path class="st0" d="M148.3,11.8c-0.6,0.6-15.7,14.3-15.7,31.5l0,0.4c0.2,17.4,15.8,31.1,16.4,31.7c0.6,0.5,1.4,0.8,2.2,0.7
			c0.8,0,1.6-0.3,2.2-0.8c0.6-0.6,15.7-14.3,15.7-31.5l0-0.4c-0.2-17.4-15.8-31.1-16.4-31.7c-0.6-0.5-1.4-0.8-2.2-0.8
			C149.7,11,148.9,11.3,148.3,11.8z"/>
		<g>
			<path class="st1" d="M7.5,102.2c0.6,0.6,13.7,15.5,35.3,20.2l0.4,0.1c21.9,4.5,43.3-3.4,44.2-3.7c0.8-0.3,1.3-0.8,1.5-1.4
				c0.2-0.6,0.1-1.3-0.4-1.8C88,114.9,74.8,100,53.2,95.3l-0.4-0.1c-21.9-4.5-43.3,3.4-44.2,3.7c-0.8,0.3-1.3,0.8-1.5,1.4
				C6.9,101,7,101.6,7.5,102.2z"/>
			<path class="st1" d="M294.5,102.2c-0.6,0.6-13.7,15.5-35.3,20.2l-0.4,0.1c-21.9,4.5-43.3-3.4-44.2-3.7c-0.8-0.3-1.3-0.8-1.5-1.4
				c-0.2-0.6-0.1-1.3,0.4-1.8c0.6-0.6,13.7-15.5,35.3-20.2l0.4-0.1c21.9-4.5,43.3,3.4,44.2,3.7c0.8,0.3,1.3,0.8,1.5,1.4
				C295.1,101,295,101.6,294.5,102.2z"/>
		</g>
		<g>
			<path class="st2" d="M251.5,40.3c-1.3,0.1-33,2.2-54.5,18.7l-0.4,0.3C175.1,76.2,173,101,172.9,102c-0.1,0.9,0.4,1.7,1.2,2.3
				c0.8,0.6,1.9,0.9,3.1,0.9c1.3-0.1,33-2.2,54.5-18.7l0.4-0.3c21.5-16.9,23.6-41.6,23.7-42.6c0.1-0.9-0.4-1.7-1.2-2.3
				C253.7,40.6,252.6,40.3,251.5,40.3z"/>
			<path class="st2" d="M46,46c-0.4-1.6-0.3-3.4,0-4c0.3-0.5,0.7-0.8,1-1c1.4-0.9,3-0.7,3.5-0.7C86,44.2,105,59,105,59
				c3,2.7,6,5.3,9,8c4.4,4.5,7.2,8.8,9,12c1.9,3.4,2.9,6,4,9c3.6,9.5,2.7,12.5,2.1,14c-0.3,0.6-0.8,1.9-2.1,3c-0.6,0.5-2,1.6-8,2
				c-2.8,0.2-5,0.4-8,0c-2.5-0.3-4.6-0.9-8-2c-5-1.7-8.6-2.9-13-5c-8.4-4.1-15.1-9.3-19.6-13.5c-0.2-0.2-0.4-0.3-0.4-0.3
				c-8.9-7-13.4-14.6-16-19.2c-0.9-1.5-5-10-6-14"/>
		</g>
		<g>
			<g>
				<path class="st3" d="M33.8,196.4c0.1-1,2.8-25.4,24.3-42l0.4-0.3c21.9-16.6,54-18.2,55.3-18.3c1.1-0.1,2.2,0.3,3,0.9
					c0.8,0.6,1.2,1.5,1.1,2.4c-0.1,1-2.8,25.4-24.3,42l-0.4,0.3c-21.9,16.6-54,18.2-55.3,18.3c-1.1,0.1-2.2-0.3-3-0.9
					C34.2,198.2,33.8,197.3,33.8,196.4z"/>
			</g>
			<g>
				<path class="st3" d="M268.2,196.4c-0.1-1-2.8-25.4-24.3-42l-0.4-0.3c-21.9-16.6-54-18.2-55.3-18.3c-1.1-0.1-2.2,0.3-3,0.9
					c-0.8,0.6-1.2,1.5-1.1,2.4c0.1,1,2.8,25.4,24.3,42l0.4,0.3c21.9,16.6,54,18.2,55.3,18.3c1.1,0.1,2.2-0.3,3-0.9
					C267.8,198.2,268.2,197.3,268.2,196.4z"/>
			</g>
		</g>
	</g>
	<path class="st4" d="M179.6,273.8c0,0-0.4-0.1-1.1-0.2l-12.8-89.1c-1.9-12.3-0.7-24.3,4.2-36c3.2-7.8,7.9-15.1,14.5-21.5
		c3-2.9,6.4-5.6,10.1-8c0.7-0.5,6.4-3.1,6.4-3.5c0,0-10.4,3.3-11.3,3.6c-5.3,2.2-10.1,4.9-14.7,7.9c-5.9,4.1-11,8.6-15.6,13.5
		l-8.5-58.8l-8.4,58.6c-4.9-5.3-10.6-10.2-17.2-14.4c-4.5-2.9-9.6-5.4-14.8-7.5c-0.8-0.3-9.3-2.8-9.3-2.8c0,0.5,7,3.9,7.9,4.5
		c3.6,2.5,7,5.3,9.9,8.3c6.1,6,10.3,13.1,13.3,20.3c4.5,10.8,5.7,22,4.3,33.3l-11.9,83.7c-10.6-1-20.7-1.3-27.9-0.4
		c-15.7,2-35.8,9.4-40,22.6c26-16.9,66.6-5.4,95.4,0.5c17.2,3.5,35.5,5.2,53.1,2.5c15.6-2.3,35.8-9.5,40-22.6
		C227.5,279.4,207.1,279,179.6,273.8z"/>
</g>
</svg>
